{
  "accessors": [
    {
      "bufferView": 2,
      "componentType": 5126,
      "count": 9907,
      "max": [
        8.461726188659668,
        14.430291175842285,
        8.332225799560547
      ],
      "min": [
        -8.461727142333984,
        -17.947383880615234,
        -0.021784000098705292
      ],
      "type": "VEC3"
    },
    {
      "bufferView": 2,
      "byteOffset": 118884,
      "componentType": 5126,
      "count": 9907,
      "max": [
        1.0,
        0.9996302127838135,
        1.0
      ],
      "min": [
        -1.0,
        -1.0,
        -1.0
      ],
      "type": "VEC3"
    },
    {
      "bufferView": 3,
      "componentType": 5126,
      "count": 9907,
      "max": [
        1.0,
        1.0,
        1.0,
        1.0
      ],
      "min": [
        -1.0,
        -1.0,
        -1.0,
        -1.0
      ],
      "type": "VEC4"
    },
    {
      "bufferView": 1,
      "componentType": 5126,
      "count": 9907,
      "max": [
        1.9886109828948975,
        0.9863399863243103
      ],
      "min": [
        1.0146859884262085,
        0.009575000032782555
      ],
      "type": "VEC2"
    },
    {
      "bufferView": 0,
      "componentType": 5125,
      "count": 34458,
      "type": "SCALAR"
    },
    {
      "bufferView": 2,
      "byteOffset": 237768,
      "componentType": 5126,
      "count": 5917,
      "max": [
        8.433206558227539,
        13.383794784545898,
        5.136509895324707
      ],
      "min": [
        -8.433205604553223,
        -13.49313735961914,
        0.3615669906139374
      ],
      "type": "VEC3"
    },
    {
      "bufferView": 2,
      "byteOffset": 308772,
      "componentType": 5126,
      "count": 5917,
      "max": [
        1.0,
        0.9996317625045776,
        1.0
      ],
      "min": [
        -1.0,
        -0.9997590184211731,
        -1.0
      ],
      "type": "VEC3"
    },
    {
      "bufferView": 3,
      "byteOffset": 158512,
      "componentType": 5126,
      "count": 5917,
      "max": [
        1.0,
        1.0,
        0.999985933303833,
        1.0
      ],
      "min": [
        -1.0,
        -0.9997324347496033,
        -0.9997590184211731,
        -1.0
      ],
      "type": "VEC4"
    },
    {
      "bufferView": 1,
      "byteOffset": 79256,
      "componentType": 5126,
      "count": 5917,
      "max": [
        1.9886109828948975,
        0.9863399863243103
      ],
      "min": [
        1.0146859884262085,
        0.009007000364363194
      ],
      "type": "VEC2"
    },
    {
      "bufferView": 0,
      "byteOffset": 137832,
      "componentType": 5125,
      "count": 14598,
      "type": "SCALAR"
    },
    {
      "bufferView": 2,
      "byteOffset": 379776,
      "componentType": 5126,
      "count": 8510,
      "max": [
        9.351763725280762,
        19.072221755981445,
        9.203103065490723
      ],
      "min": [
        -9.351764678955078,
        -19.117311477661133,
        0.9681599736213684
      ],
      "type": "VEC3"
    },
    {
      "bufferView": 2,
      "byteOffset": 481896,
      "componentType": 5126,
      "count": 8510,
      "max": [
        1.0,
        1.0,
        1.0
      ],
      "min": [
        -1.0,
        -1.0,
        -0.9999996423721313
      ],
      "type": "VEC3"
    },
    {
      "bufferView": 3,
      "byteOffset": 253184,
      "componentType": 5126,
      "count": 8510,
      "max": [
        1.0,
        1.0,
        0.9999823570251465,
        1.0
      ],
      "min": [
        -1.0,
        -1.0,
        -1.0,
        -1.0
      ],
      "type": "VEC4"
    },
    {
      "bufferView": 1,
      "byteOffset": 126592,
      "componentType": 5126,
      "count": 8510,
      "max": [
        2.997189998626709,
        0.9733399748802185
      ],
      "min": [
        2.00752592086792,
        0.002873999997973442
      ],
      "type": "VEC2"
    },
    {
      "bufferView": 0,
      "byteOffset": 196224,
      "componentType": 5125,
      "count": 29472,
      "type": "SCALAR"
    },
    {
      "bufferView": 2,
      "byteOffset": 584016,
      "componentType": 5126,
      "count": 7546,
      "max": [
        7.562089920043945,
        3.8639891147613525,
        9.558253288269043
      ],
      "min": [
        -7.562089920043945,
        -12.153386116027832,
        1.3885300159454346
      ],
      "type": "VEC3"
    },
    {
      "bufferView": 2,
      "byteOffset": 674568,
      "componentType": 5126,
      "count": 7546,
      "max": [
        1.0,
        1.0,
        1.0
      ],
      "min": [
        -1.0,
        -1.0,
        -0.9989840984344482
      ],
      "type": "VEC3"
    },
    {
      "bufferView": 3,
      "byteOffset": 389344,
      "componentType": 5126,
      "count": 7546,
      "max": [
        1.0,
        1.0,
        0.9999886155128479,
        1.0
      ],
      "min": [
        -1.0,
        -0.99998539686203,
        -0.9992554187774658,
        -1.0
      ],
      "type": "VEC4"
    },
    {
      "bufferView": 1,
      "byteOffset": 194672,
      "componentType": 5126,
      "count": 7546,
      "max": [
        3.992734909057617,
        0.9899439811706543
      ],
      "min": [
        3.004971981048584,
        0.006676999852061272
      ],
      "type": "VEC2"
    },
    {
      "bufferView": 0,
      "byteOffset": 314112,
      "componentType": 5125,
      "count": 23154,
      "type": "SCALAR"
    },
    {
      "bufferView": 2,
      "byteOffset": 765120,
      "componentType": 5126,
      "count": 226,
      "max": [
        8.42162036895752,
        17.315032958984375,
        5.82024621963501
      ],
      "min": [
        -8.421618461608887,
        -17.909818649291992,
        1.1824959516525269
      ],
      "type": "VEC3"
    },
    {
      "bufferView": 2,
      "byteOffset": 767832,
      "componentType": 5126,
      "count": 226,
      "max": [
        0.945905864238739,
        1.0,
        0.971398651599884
      ],
      "min": [
        -0.945905864238739,
        -1.0,
        -0.6742180585861206
      ],
      "type": "VEC3"
    },
    {
      "bufferView": 3,
      "byteOffset": 510080,
      "componentType": 5126,
      "count": 226,
      "max": [
        0.999998927116394,
        0.9693953394889832,
        1.0,
        1.0
      ],
      "min": [
        -0.9999988675117493,
        -0.9724568724632263,
        -1.0,
        -1.0
      ],
      "type": "VEC4"
    },
    {
      "bufferView": 1,
      "byteOffset": 255040,
      "componentType": 5126,
      "count": 226,
      "max": [
        1.9873219728469849,
        0.9796220064163208
      ],
      "min": [
        1.0302850008010864,
        0.003275000024586916
      ],
      "type": "VEC2"
    },
    {
      "bufferView": 0,
      "byteOffset": 406728,
      "componentType": 5125,
      "count": 546,
      "type": "SCALAR"
    },
    {
      "bufferView": 2,
      "byteOffset": 770544,
      "componentType": 5126,
      "count": 578,
      "max": [
        7.404697895050049,
        16.598072052001953,
        8.808457374572754
      ],
      "min": [
        -7.404698848724365,
        -17.593486785888672,
        4.107672214508057
      ],
      "type": "VEC3"
    },
    {
      "bufferView": 2,
      "byteOffset": 777480,
      "componentType": 5126,
      "count": 578,
      "max": [
        0.9982600212097168,
        0.9248588681221008,
        0.9998770952224731
      ],
      "min": [
        -0.9982599020004272,
        -0.8701351881027222,
        -0.9999001026153564
      ],
      "type": "VEC3"
    },
    {
      "bufferView": 1,
      "byteOffset": 256848,
      "componentType": 5126,
      "count": 578,
      "max": [
        2.3823580741882324,
        0.9773370027542114
      ],
      "min": [
        2.0414350032806396,
        0.6201500296592712
      ],
      "type": "VEC2"
    },
    {
      "bufferView": 0,
      "byteOffset": 408912,
      "componentType": 5125,
      "count": 2208,
      "type": "SCALAR"
    },
    {
      "bufferView": 2,
      "byteOffset": 784416,
      "componentType": 5126,
      "count": 7297,
      "max": [
        8.52900505065918,
        17.861854553222656,
        10.050616264343262
      ],
      "min": [
        -8.52900505065918,
        -18.606595993041992,
        0.9707509875297546
      ],
      "type": "VEC3"
    },
    {
      "bufferView": 2,
      "byteOffset": 871980,
      "componentType": 5126,
      "count": 7297,
      "max": [
        1.0,
        0.9999227523803711,
        1.0
      ],
      "min": [
        -1.0,
        -0.9997594952583313,
        -1.0
      ],
      "type": "VEC3"
    },
    {
      "bufferView": 3,
      "byteOffset": 513696,
      "componentType": 5126,
      "count": 7297,
      "max": [
        1.0,
        0.9999868273735046,
        0.9995817542076111,
        1.0
      ],
      "min": [
        -1.0,
        -0.999997615814209,
        -0.9999226927757263,
        -1.0
      ],
      "type": "VEC4"
    },
    {
      "bufferView": 1,
      "byteOffset": 261472,
      "componentType": 5126,
      "count": 7297,
      "max": [
        0.9970369935035706,
        0.9904789924621582
      ],
      "min": [
        0.011673999950289726,
        0.0037249999586492777
      ],
      "type": "VEC2"
    },
    {
      "bufferView": 0,
      "byteOffset": 417744,
      "componentType": 5125,
      "count": 24201,
      "type": "SCALAR"
    }
  ],
  "asset": {
    "extras": {
      "author": "jkazulyblanco (https://sketchfab.com/jkazulyblanco)",
      "license": "CC-BY-4.0 (http://creativecommons.org/licenses/by/4.0/)",
      "source": "https://sketchfab.com/3d-models/koenigsegg-one1-low-poly-8d253a7f43404113838d72c7fc9cfa94",
      "title": "Koenigsegg One1 low poly"
    },
    "generator": "Sketchfab-12.64.0",
    "version": "2.0"
  },
  "bufferViews": [
    {
      "buffer": 0,
      "byteLength": 514548,
      "name": "floatBufferViews",
      "target": 34963
    },
    {
      "buffer": 0,
      "byteLength": 319848,
      "byteOffset": 514548,
      "byteStride": 8,
      "name": "floatBufferViews",
      "target": 34962
    },
    {
      "buffer": 0,
      "byteLength": 959544,
      "byteOffset": 834396,
      "byteStride": 12,
      "name": "floatBufferViews",
      "target": 34962
    },
    {
      "buffer": 0,
      "byteLength": 630448,
      "byteOffset": 1793940,
      "byteStride": 16,
      "name": "floatBufferViews",
      "target": 34962
    }
  ],
  "buffers": [
    {
      "byteLength": 2424388,
      "uri": "scene.bin"
    }
  ],
  "images": [
    {
      "uri": "textures/lambert10SG_baseColor.png"
    },
    {
      "uri": "textures/lambert10SG_metallicRoughness.png"
    },
    {
      "uri": "textures/lambert10SG_normal.png"
    },
    {
      "uri": "textures/lambert11SG_baseColor.png"
    },
    {
      "uri": "textures/lambert11SG_metallicRoughness.png"
    },
    {
      "uri": "textures/lambert11SG_emissive.png"
    },
    {
      "uri": "textures/lambert11SG_normal.png"
    },
    {
      "uri": "textures/lambert12SG_baseColor.png"
    },
    {
      "uri": "textures/lambert12SG_metallicRoughness.png"
    },
    {
      "uri": "textures/lambert12SG_normal.png"
    },
    {
      "uri": "textures/lambert13SG_baseColor.png"
    },
    {
      "uri": "textures/lambert16SG_baseColor.png"
    },
    {
      "uri": "textures/lambert9SG_baseColor.png"
    },
    {
      "uri": "textures/lambert9SG_metallicRoughness.png"
    },
    {
      "uri": "textures/lambert9SG_normal.png"
    }
  ],
  "materials": [
    {
      "doubleSided": true,
      "name": "lambert10SG",
      "normalTexture": {
        "index": 2
      },
      "occlusionTexture": {
        "index": 1
      },
      "pbrMetallicRoughness": {
        "baseColorTexture": {
          "index": 0
        },
        "metallicRoughnessTexture": {
          "index": 1
        }
      }
    },
    {
      "doubleSided": true,
      "emissiveFactor": [
        1.0,
        1.0,
        1.0
      ],
      "emissiveTexture": {
        "index": 5
      },
      "name": "lambert11SG",
      "normalTexture": {
        "index": 6
      },
      "occlusionTexture": {
        "index": 4
      },
      "pbrMetallicRoughness": {
        "baseColorTexture": {
          "index": 3
        },
        "metallicRoughnessTexture": {
          "index": 4
        }
      }
    },
    {
      "doubleSided": true,
      "name": "lambert12SG",
      "normalTexture": {
        "index": 9
      },
      "occlusionTexture": {
        "index": 8
      },
      "pbrMetallicRoughness": {
        "baseColorTexture": {
          "index": 7
        },
        "metallicRoughnessTexture": {
          "index": 8
        }
      }
    },
    {
      "alphaMode": "BLEND",
      "doubleSided": true,
      "name": "lambert13SG",
      "normalTexture": {
        "index": 2
      },
      "occlusionTexture": {
        "index": 1
      },
      "pbrMetallicRoughness": {
        "baseColorTexture": {
          "index": 10
        },
        "metallicRoughnessTexture": {
          "index": 1
        }
      }
    },
    {
      "alphaMode": "BLEND",
      "doubleSided": true,
      "name": "lambert16SG",
      "occlusionTexture": {
        "index": 4
      },
      "pbrMetallicRoughness": {
        "baseColorTexture": {
          "index": 11
        },
        "metallicRoughnessTexture": {
          "index": 4
        }
      }
    },
    {
      "doubleSided": true,
      "name": "lambert9SG",
      "normalTexture": {
        "index": 14
      },
      "occlusionTexture": {
        "index": 13
      },
      "pbrMetallicRoughness": {
        "baseColorTexture": {
          "index": 12
        },
        "metallicRoughnessTexture": {
          "index": 13
        }
      }
    }
  ],
  "meshes": [
    {
      "name": "Object_0",
      "primitives": [
        {
          "attributes": {
            "NORMAL": 1,
            "POSITION": 0,
            "TANGENT": 2,
            "TEXCOORD_0": 3
          },
          "indices": 4,
          "material": 0,
          "mode": 4
        }
      ]
    },
    {
      "name": "Object_1",
      "primitives": [
        {
          "attributes": {
            "NORMAL": 6,
            "POSITION": 5,
            "TANGENT": 7,
            "TEXCOORD_0": 8
          },
          "indices": 9,
          "material": 0,
          "mode": 4
        }
      ]
    },
    {
      "name": "Object_2",
      "primitives": [
        {
          "attributes": {
            "NORMAL": 11,
            "POSITION": 10,
            "TANGENT": 12,
            "TEXCOORD_0": 13
          },
          "indices": 14,
          "material": 1,
          "mode": 4
        }
      ]
    },
    {
      "name": "Object_3",
      "primitives": [
        {
          "attributes": {
            "NORMAL": 16,
            "POSITION": 15,
            "TANGENT": 17,
            "TEXCOORD_0": 18
          },
          "indices": 19,
          "material": 2,
          "mode": 4
        }
      ]
    },
    {
      "name": "Object_4",
      "primitives": [
        {
          "attributes": {
            "NORMAL": 21,
            "POSITION": 20,
            "TANGENT": 22,
            "TEXCOORD_0": 23
          },
          "indices": 24,
          "material": 3,
          "mode": 4
        }
      ]
    },
    {
      "name": "Object_5",
      "primitives": [
        {
          "attributes": {
            "NORMAL": 26,
            "POSITION": 25,
            "TEXCOORD_0": 27
          },
          "indices": 28,
          "material": 4,
          "mode": 4
        }
      ]
    },
    {
      "name": "Object_6",
      "primitives": [
        {
          "attributes": {
            "NORMAL": 30,
            "POSITION": 29,
            "TANGENT": 31,
            "TEXCOORD_0": 32
          },
          "indices": 33,
          "material": 5,
          "mode": 4
        }
      ]
    }
  ],
  "nodes": [
    {
      "children": [
        1
      ],
      "matrix": [
        0.1428571492433548,
        0.0,
        0.0,
        0.0,
        0.0,
        3.172065926445695e-17,
        -0.1428571492433548,
        0.0,
        0.0,
        0.1428571492433548,
        3.172065926445695e-17,
        0.0,
        0.0,
        0.0,
        0.0,
        1.0
      ],
      "name": "Sketchfab_model"
    },
    {
      "children": [
        2,
        3,
        4,
        5,
        6,
        7,
        8
      ],
      "name": "Koenisegg one.obj.cleaner.materialmerger.gles"
    },
    {
      "mesh": 0,
      "name": "Object_2"
    },
    {
      "mesh": 1,
      "name": "Object_3"
    },
    {
      "mesh": 2,
      "name": "Object_4"
    },
    {
      "mesh": 3,
      "name": "Object_5"
    },
    {
      "mesh": 4,
      "name": "Object_6"
    },
    {
      "mesh": 5,
      "name": "Object_7"
    },
    {
      "mesh": 6,
      "name": "Object_8"
    }
  ],
  "samplers": [
    {
      "magFilter": 9729,
      "minFilter": 9987,
      "wrapS": 10497,
      "wrapT": 10497
    }
  ],
  "scene": 0,
  "scenes": [
    {
      "name": "Sketchfab_Scene",
      "nodes": [
        0
      ]
    }
  ],
  "textures": [
    {
      "sampler": 0,
      "source": 0
    },
    {
      "sampler": 0,
      "source": 1
    },
    {
      "sampler": 0,
      "source": 2
    },
    {
      "sampler": 0,
      "source": 3
    },
    {
      "sampler": 0,
      "source": 4
    },
    {
      "sampler": 0,
      "source": 5
    },
    {
      "sampler": 0,
      "source": 6
    },
    {
      "sampler": 0,
      "source": 7
    },
    {
      "sampler": 0,
      "source": 8
    },
    {
      "sampler": 0,
      "source": 9
    },
    {
      "sampler": 0,
      "source": 10
    },
    {
      "sampler": 0,
      "source": 11
    },
    {
      "sampler": 0,
      "source": 12
    },
    {
      "sampler": 0,
      "source": 13
    },
    {
      "sampler": 0,
      "source": 14
    }
  ]
}
