{
  "accessors": [
    {
      "bufferView": 2,
      "componentType": 5126,
      "count": 36,
      "max": [
        5.041976451873779,
        3.945894479751587,
        -267.29998779296875
      ],
      "min": [
        -5.041976451873779,
        -3.945894479751587,
        -300.0
      ],
      "type": "VEC3"
    },
    {
      "bufferView": 2,
      "byteOffset": 432,
      "componentType": 5126,
      "count": 36,
      "max": [
        1.0,
        1.0,
        0.16722749173641205
      ],
      "min": [
        -1.0,
        -0.9742574691772461,
        -1.0
      ],
      "type": "VEC3"
    },
    {
      "bufferView": 3,
      "componentType": 5126,
      "count": 36,
      "max": [
        1.0,
        1.0,
        0.005001623183488846,
        1.0
      ],
      "min": [
        -0.9742575287818909,
        -1.0,
        -0.007866174913942814,
        1.0
      ],
      "type": "VEC4"
    },
    {
      "bufferView": 1,
      "componentType": 5126,
      "count": 36,
      "max": [
        0.8286756873130798,
        0.9994999766349792
      ],
      "min": [
        0.0005000000237487257,
        0.0005000000237487257
      ],
      "type": "VEC2"
    },
    {
      "bufferView": 0,
      "componentType": 5125,
      "count": 84,
      "type": "SCALAR"
    },
    {
      "bufferView": 2,
      "byteOffset": 864,
      "componentType": 5126,
      "count": 5441,
      "max": [
        4.236763000488281,
        3.315727472305298,
        0.0
      ],
      "min": [
        -4.236763000488281,
        -3.315727472305298,
        -267.29998779296875
      ],
      "type": "VEC3"
    },
    {
      "bufferView": 2,
      "byteOffset": 66156,
      "componentType": 5126,
      "count": 5441,
      "max": [
        1.0,
        1.0,
        1.0
      ],
      "min": [
        -1.0,
        -1.0,
        -1.0
      ],
      "type": "VEC3"
    },
    {
      "bufferView": 3,
      "byteOffset": 576,
      "componentType": 5126,
      "count": 5441,
      "max": [
        1.0,
        1.0,
        1.0,
        1.0
      ],
      "min": [
        -1.0,
        -1.0,
        -1.0,
        1.0
      ],
      "type": "VEC4"
    },
    {
      "bufferView": 1,
      "byteOffset": 288,
      "componentType": 5126,
      "count": 5441,
      "max": [
        0.2905954420566559,
        0.999500036239624
      ],
      "min": [
        0.0005000000237487257,
        0.0005000000237487257
      ],
      "type": "VEC2"
    },
    {
      "bufferView": 0,
      "byteOffset": 336,
      "componentType": 5125,
      "count": 15552,
      "type": "SCALAR"
    },
    {
      "bufferView": 2,
      "byteOffset": 131448,
      "componentType": 5126,
      "count": 196,
      "max": [
        50.05138397216797,
        -3.3996524810791016,
        -4.072914123535156
      ],
      "min": [
        -49.94861602783203,
        -5.400018215179443,
        -104.07291412353516
      ],
      "type": "VEC3"
    },
    {
      "bufferView": 2,
      "byteOffset": 133800,
      "componentType": 5126,
      "count": 196,
      "max": [
        1.0,
        1.0,
        1.0
      ],
      "min": [
        -1.0,
        0.0,
        -1.0
      ],
      "type": "VEC3"
    },
    {
      "bufferView": 3,
      "byteOffset": 87632,
      "componentType": 5126,
      "count": 196,
      "max": [
        0.9999998807907104,
        1.0,
        0.6946602463722229,
        1.0
      ],
      "min": [
        0.0,
        -3.1895427810013643e-07,
        -0.0006593974540010095,
        -1.0
      ],
      "type": "VEC4"
    },
    {
      "bufferView": 1,
      "byteOffset": 43816,
      "componentType": 5126,
      "count": 196,
      "max": [
        1.0002576112747192,
        1.0002577304840088
      ],
      "min": [
        -0.0002576559782028198,
        -0.00025770068168640137
      ],
      "type": "VEC2"
    },
    {
      "bufferView": 0,
      "byteOffset": 62544,
      "componentType": 5125,
      "count": 402,
      "type": "SCALAR"
    },
    {
      "bufferView": 2,
      "byteOffset": 136152,
      "componentType": 5126,
      "count": 245,
      "max": [
        31.443849563598633,
        -4.399829864501953,
        -26.34649085998535
      ],
      "min": [
        -22.108943939208984,
        -5.400014877319336,
        -89.28900146484375
      ],
      "type": "VEC3"
    },
    {
      "bufferView": 2,
      "byteOffset": 139092,
      "componentType": 5126,
      "count": 245,
      "max": [
        1.0,
        0.0,
        0.9848087430000305
      ],
      "min": [
        -1.0,
        0.0,
        -0.9848087430000305
      ],
      "type": "VEC3"
    },
    {
      "bufferView": 1,
      "byteOffset": 45384,
      "componentType": 5126,
      "count": 245,
      "max": [
        0.6799452304840088,
        0.02416498214006424
      ],
      "min": [
        0.3024858236312866,
        0.0049598561599850655
      ],
      "type": "VEC2"
    },
    {
      "bufferView": 0,
      "byteOffset": 64152,
      "componentType": 5125,
      "count": 432,
      "type": "SCALAR"
    },
    {
      "bufferView": 2,
      "byteOffset": 142032,
      "componentType": 5126,
      "count": 80,
      "max": [
        50.05138397216797,
        -5.4000020027160645,
        -4.072914123535156
      ],
      "min": [
        -49.94861602783203,
        -5.400018215179443,
        -104.07291412353516
      ],
      "type": "VEC3"
    },
    {
      "bufferView": 2,
      "byteOffset": 142992,
      "componentType": 5126,
      "count": 80,
      "max": [
        1.3530515161619405e-06,
        -1.0,
        7.661016638849105e-07
      ],
      "min": [
        -1.8229826309834607e-05,
        -1.0,
        -1.1569206435524393e-05
      ],
      "type": "VEC3"
    },
    {
      "bufferView": 3,
      "byteOffset": 90768,
      "componentType": 5126,
      "count": 80,
      "max": [
        1.0,
        1.3529770512832329e-06,
        1.2853274711233098e-05,
        1.0
      ],
      "min": [
        1.0,
        -1.8228953194920905e-05,
        -9.713514009490609e-05,
        1.0
      ],
      "type": "VEC4"
    },
    {
      "bufferView": 1,
      "byteOffset": 47344,
      "componentType": 5126,
      "count": 80,
      "max": [
        1.0,
        1.0
      ],
      "min": [
        0.0,
        -1.4901161193847656e-08
      ],
      "type": "VEC2"
    },
    {
      "bufferView": 0,
      "byteOffset": 65880,
      "componentType": 5125,
      "count": 258,
      "type": "SCALAR"
    }
  ],
  "asset": {
    "extras": {
      "author": "Anthony Yanez (https://sketchfab.com/paulyanez)",
      "license": "CC-BY-4.0 (http://creativecommons.org/licenses/by/4.0/)",
      "source": "https://sketchfab.com/3d-models/rusty-stop-sign-2225bb40891b4ed083a75bd17e447dd0",
      "title": "Rusty Stop Sign"
    },
    "generator": "Sketchfab-12.66.0",
    "version": "2.0"
  },
  "bufferViews": [
    {
      "buffer": 0,
      "byteLength": 66912,
      "name": "floatBufferViews",
      "target": 34963
    },
    {
      "buffer": 0,
      "byteLength": 47984,
      "byteOffset": 66912,
      "byteStride": 8,
      "name": "floatBufferViews",
      "target": 34962
    },
    {
      "buffer": 0,
      "byteLength": 143952,
      "byteOffset": 114896,
      "byteStride": 12,
      "name": "floatBufferViews",
      "target": 34962
    },
    {
      "buffer": 0,
      "byteLength": 92048,
      "byteOffset": 258848,
      "byteStride": 16,
      "name": "floatBufferViews",
      "target": 34962
    }
  ],
  "buffers": [
    {
      "byteLength": 350896,
      "uri": "scene.bin"
    }
  ],
  "images": [
    {
      "uri": "textures/07_-_Default_baseColor.png"
    },
    {
      "uri": "textures/07_-_Default_normal.png"
    },
    {
      "uri": "textures/08_-_Default_baseColor.jpeg"
    },
    {
      "uri": "textures/08_-_Default_normal.png"
    },
    {
      "uri": "textures/02_-_Default_baseColor.jpeg"
    },
    {
      "uri": "textures/02_-_Default_normal.png"
    },
    {
      "uri": "textures/01_-_Default_baseColor.png"
    },
    {
      "uri": "textures/01_-_Default_normal.png"
    }
  ],
  "materials": [
    {
      "doubleSided": true,
      "name": "07_-_Default",
      "normalTexture": {
        "index": 1
      },
      "pbrMetallicRoughness": {
        "baseColorTexture": {
          "index": 0
        },
        "roughnessFactor": 0.8929713596
      }
    },
    {
      "doubleSided": true,
      "name": "08_-_Default",
      "normalTexture": {
        "index": 3,
        "scale": 0.5169938059
      },
      "pbrMetallicRoughness": {
        "baseColorFactor": [
          0.1472968362,
          0.1472968362,
          0.1472968362,
          1.0
        ],
        "baseColorTexture": {
          "index": 2
        },
        "roughnessFactor": 0.5739152851
      }
    },
    {
      "doubleSided": true,
      "name": "02_-_Default",
      "normalTexture": {
        "index": 5
      },
      "pbrMetallicRoughness": {
        "baseColorTexture": {
          "index": 4
        },
        "roughnessFactor": 0.8929713596
      }
    },
    {
      "doubleSided": true,
      "name": "03_-_Default",
      "pbrMetallicRoughness": {
        "baseColorTexture": {
          "index": 4
        },
        "metallicFactor": 0.0,
        "roughnessFactor": 0.8929713596
      }
    },
    {
      "doubleSided": true,
      "name": "01_-_Default",
      "normalTexture": {
        "index": 7
      },
      "pbrMetallicRoughness": {
        "baseColorTexture": {
          "index": 6
        },
        "metallicFactor": 0.5715392604,
        "roughnessFactor": 0.8929713596
      }
    }
  ],
  "meshes": [
    {
      "name": "Stop Sign_07 - Default_0",
      "primitives": [
        {
          "attributes": {
            "NORMAL": 1,
            "POSITION": 0,
            "TANGENT": 2,
            "TEXCOORD_0": 3
          },
          "indices": 4,
          "material": 0,
          "mode": 4
        }
      ]
    },
    {
      "name": "Stop Sign_08 - Default_0",
      "primitives": [
        {
          "attributes": {
            "NORMAL": 6,
            "POSITION": 5,
            "TANGENT": 7,
            "TEXCOORD_0": 8
          },
          "indices": 9,
          "material": 1,
          "mode": 4
        }
      ]
    },
    {
      "name": "Stop Sign_02 - Default_0",
      "primitives": [
        {
          "attributes": {
            "NORMAL": 11,
            "POSITION": 10,
            "TANGENT": 12,
            "TEXCOORD_0": 13
          },
          "indices": 14,
          "material": 2,
          "mode": 4
        }
      ]
    },
    {
      "name": "Stop Sign_03 - Default_0",
      "primitives": [
        {
          "attributes": {
            "NORMAL": 16,
            "POSITION": 15,
            "TEXCOORD_0": 17
          },
          "indices": 18,
          "material": 3,
          "mode": 4
        }
      ]
    },
    {
      "name": "Stop Sign_01 - Default_0",
      "primitives": [
        {
          "attributes": {
            "NORMAL": 20,
            "POSITION": 19,
            "TANGENT": 21,
            "TEXCOORD_0": 22
          },
          "indices": 23,
          "material": 4,
          "mode": 4
        }
      ]
    }
  ],
  "nodes": [
    {
      "children": [
        1
      ],
      "matrix": [
        1.0,
        0.0,
        0.0,
        0.0,
        0.0,
        2.220446049250313e-16,
        -1.0,
        0.0,
        0.0,
        1.0,
        2.220446049250313e-16,
        0.0,
        0.0,
        0.0,
        0.0,
        1.0
      ],
      "name": "Sketchfab_model"
    },
    {
      "children": [
        2
      ],
      "matrix": [
        1.0,
        0.0,
        0.0,
        0.0,
        0.0,
        0.0,
        1.0,
        0.0,
        0.0,
        -1.0,
        0.0,
        0.0,
        0.0,
        0.0,
        0.0,
        1.0
      ],
      "name": "Stop Sign.FBX"
    },
    {
      "children": [
        3
      ],
      "name": "RootNode"
    },
    {
      "children": [
        4
      ],
      "matrix": [
        1.0,
        0.0,
        0.0,
        0.0,
        0.0,
        2.220446049250313e-16,
        -1.0,
        0.0,
        0.0,
        1.0,
        2.220446049250313e-16,
        0.0,
        0.05138397216796875,
        151.45591735839844,
        0.7270744442939758,
        1.0
      ],
      "name": "Stop Sign"
    },
    {
      "children": [
        5,
        6,
        7,
        8,
        9
      ],
      "matrix": [
        1.0,
        0.0,
        -0.0,
        0.0,
        0.0,
        1.0,
        0.0,
        0.0,
        0.0,
        0.0,
        1.0,
        0.0,
        -0.05138397216796875,
        0.7270612716674805,
        150.0,
        1.0
      ],
      "name": "Object_4"
    },
    {
      "mesh": 0,
      "name": "Stop Sign_07 - Default_0"
    },
    {
      "mesh": 1,
      "name": "Stop Sign_08 - Default_0"
    },
    {
      "mesh": 2,
      "name": "Stop Sign_02 - Default_0"
    },
    {
      "mesh": 3,
      "name": "Stop Sign_03 - Default_0"
    },
    {
      "mesh": 4,
      "name": "Stop Sign_01 - Default_0"
    }
  ],
  "samplers": [
    {
      "magFilter": 9729,
      "minFilter": 9987,
      "wrapS": 10497,
      "wrapT": 10497
    }
  ],
  "scene": 0,
  "scenes": [
    {
      "name": "Sketchfab_Scene",
      "nodes": [
        0
      ]
    }
  ],
  "textures": [
    {
      "sampler": 0,
      "source": 0
    },
    {
      "sampler": 0,
      "source": 1
    },
    {
      "sampler": 0,
      "source": 2
    },
    {
      "sampler": 0,
      "source": 3
    },
    {
      "sampler": 0,
      "source": 4
    },
    {
      "sampler": 0,
      "source": 5
    },
    {
      "sampler": 0,
      "source": 6
    },
    {
      "sampler": 0,
      "source": 7
    }
  ]
}
