{
  "accessors": [
    {
      "bufferView": 2,
      "componentType": 5126,
      "count": 144,
      "max": [
        0.9341400265693665,
        -0.6890159845352173,
        2.806648015975952
      ],
      "min": [
        -1.079996943473816,
        -0.7984219789505005,
        2.349936008453369
      ],
      "type": "VEC3"
    },
    {
      "bufferView": 2,
      "byteOffset": 1728,
      "componentType": 5126,
      "count": 144,
      "max": [
        0.9992667436599731,
        0.9990377426147461,
        0.9949777722358704
      ],
      "min": [
        -0.9868686199188232,
        -0.9990377426147461,
        -0.9949776530265808
      ],
      "type": "VEC3"
    },
    {
      "bufferView": 1,
      "componentType": 5126,
      "count": 144,
      "max": [
        0.9614149928092957,
        0.9550229907035828
      ],
      "min": [
        0.01583000086247921,
        0.835657000541687
      ],
      "type": "VEC2"
    },
    {
      "bufferView": 0,
      "componentType": 5125,
      "count": 216,
      "type": "SCALAR"
    },
    {
      "bufferView": 2,
      "byteOffset": 3456,
      "componentType": 5126,
      "count": 9713,
      "max": [
        1.7217700481414795,
        0.7471200227737427,
        3.2851641178131104
      ],
      "min": [
        -1.7857110500335693,
        -0.9495049715042114,
        -3.258958101272583
      ],
      "type": "VEC3"
    },
    {
      "bufferView": 2,
      "byteOffset": 120012,
      "componentType": 5126,
      "count": 9713,
      "max": [
        1.0,
        1.0,
        1.0
      ],
      "min": [
        -1.0,
        -1.0,
        -1.0
      ],
      "type": "VEC3"
    },
    {
      "bufferView": 1,
      "byteOffset": 1152,
      "componentType": 5126,
      "count": 9713,
      "max": [
        0.9980080127716064,
        0.9552580118179321
      ],
      "min": [
        0.0019920000340789557,
        0.3152259886264801
      ],
      "type": "VEC2"
    },
    {
      "bufferView": 0,
      "byteOffset": 864,
      "componentType": 5125,
      "count": 39444,
      "type": "SCALAR"
    },
    {
      "bufferView": 2,
      "byteOffset": 236568,
      "componentType": 5126,
      "count": 9769,
      "max": [
        4.304800033569336,
        0.7629709839820862,
        3.3141191005706787
      ],
      "min": [
        -4.304800033569336,
        -1.7228039503097534,
        -0.6447309851646423
      ],
      "type": "VEC3"
    },
    {
      "bufferView": 2,
      "byteOffset": 353796,
      "componentType": 5126,
      "count": 9769,
      "max": [
        1.0,
        1.0,
        0.9999776482582092
      ],
      "min": [
        -1.0,
        -1.0,
        -1.0
      ],
      "type": "VEC3"
    },
    {
      "bufferView": 1,
      "byteOffset": 78856,
      "componentType": 5126,
      "count": 9769,
      "max": [
        0.9980080127716064,
        0.9520900249481201
      ],
      "min": [
        0.0019920000340789557,
        0.0019069999689236283
      ],
      "type": "VEC2"
    },
    {
      "bufferView": 0,
      "byteOffset": 158640,
      "componentType": 5125,
      "count": 47448,
      "type": "SCALAR"
    },
    {
      "bufferView": 2,
      "byteOffset": 471024,
      "componentType": 5126,
      "count": 2208,
      "max": [
        1.127958059310913,
        -0.5081629753112793,
        2.492379903793335
      ],
      "min": [
        -1.1409649848937988,
        -0.983771026134491,
        1.3591639995574951
      ],
      "type": "VEC3"
    },
    {
      "bufferView": 2,
      "byteOffset": 497520,
      "componentType": 5126,
      "count": 2208,
      "max": [
        1.0,
        0.9998775124549866,
        0.9974584579467773
      ],
      "min": [
        -1.0,
        -0.9998775124549866,
        -0.9974579811096191
      ],
      "type": "VEC3"
    },
    {
      "bufferView": 1,
      "byteOffset": 157008,
      "componentType": 5126,
      "count": 2208,
      "max": [
        0.9980080127716064,
        0.7547270059585571
      ],
      "min": [
        0.25276699662208557,
        0.5632389783859253
      ],
      "type": "VEC2"
    },
    {
      "bufferView": 0,
      "byteOffset": 348432,
      "componentType": 5125,
      "count": 11520,
      "type": "SCALAR"
    }
  ],
  "asset": {
    "extras": {
      "author": "jamato00 (https://sketchfab.com/jamato00)",
      "license": "CC-BY-4.0 (http://creativecommons.org/licenses/by/4.0/)",
      "source": "https://sketchfab.com/3d-models/sponge-bob-c4c967caca624115a6ce629d28266129",
      "title": "Sponge Bob"
    },
    "generator": "Sketchfab-12.67.0",
    "version": "2.0"
  },
  "bufferViews": [
    {
      "buffer": 0,
      "byteLength": 394512,
      "name": "floatBufferViews",
      "target": 34963
    },
    {
      "buffer": 0,
      "byteLength": 174672,
      "byteOffset": 394512,
      "byteStride": 8,
      "name": "floatBufferViews",
      "target": 34962
    },
    {
      "buffer": 0,
      "byteLength": 524016,
      "byteOffset": 569184,
      "byteStride": 12,
      "name": "floatBufferViews",
      "target": 34962
    }
  ],
  "buffers": [
    {
      "byteLength": 1093200,
      "uri": "scene.bin"
    }
  ],
  "images": [
    {
      "uri": "textures/aiStandardSurface2SG_baseColor.png"
    },
    {
      "uri": "textures/aiStandardSurface3SG_baseColor.png"
    }
  ],
  "materials": [
    {
      "doubleSided": true,
      "name": "aiStandardSurface1SG",
      "pbrMetallicRoughness": {
        "baseColorFactor": [
          0.0,
          0.0,
          0.0,
          1.0
        ],
        "metallicFactor": 0.0,
        "roughnessFactor": 0.6
      }
    },
    {
      "doubleSided": true,
      "name": "aiStandardSurface2SG",
      "pbrMetallicRoughness": {
        "baseColorTexture": {
          "index": 0
        },
        "metallicFactor": 0.0,
        "roughnessFactor": 0.6
      }
    },
    {
      "doubleSided": true,
      "name": "aiStandardSurface3SG",
      "pbrMetallicRoughness": {
        "baseColorTexture": {
          "index": 1
        },
        "metallicFactor": 0.0,
        "roughnessFactor": 0.12331351196882087
      }
    }
  ],
  "meshes": [
    {
      "name": "Object_0",
      "primitives": [
        {
          "attributes": {
            "NORMAL": 1,
            "POSITION": 0,
            "TEXCOORD_0": 2
          },
          "indices": 3,
          "material": 0,
          "mode": 4
        }
      ]
    },
    {
      "name": "Object_1",
      "primitives": [
        {
          "attributes": {
            "NORMAL": 5,
            "POSITION": 4,
            "TEXCOORD_0": 6
          },
          "indices": 7,
          "material": 1,
          "mode": 4
        }
      ]
    },
    {
      "name": "Object_2",
      "primitives": [
        {
          "attributes": {
            "NORMAL": 9,
            "POSITION": 8,
            "TEXCOORD_0": 10
          },
          "indices": 11,
          "material": 1,
          "mode": 4
        }
      ]
    },
    {
      "name": "Object_3",
      "primitives": [
        {
          "attributes": {
            "NORMAL": 13,
            "POSITION": 12,
            "TEXCOORD_0": 14
          },
          "indices": 15,
          "material": 2,
          "mode": 4
        }
      ]
    }
  ],
  "nodes": [
    {
      "children": [
        1
      ],
      "matrix": [
        1.0,
        0.0,
        0.0,
        0.0,
        0.0,
        2.220446049250313e-16,
        -1.0,
        0.0,
        0.0,
        1.0,
        2.220446049250313e-16,
        0.0,
        0.0,
        0.0,
        0.0,
        1.0
      ],
      "name": "Sketchfab_model"
    },
    {
      "children": [
        2,
        3,
        4,
        5
      ],
      "name": "BOBFAB.obj.cleaner.materialmerger.gles"
    },
    {
      "mesh": 0,
      "name": "Object_2"
    },
    {
      "mesh": 1,
      "name": "Object_3"
    },
    {
      "mesh": 2,
      "name": "Object_4"
    },
    {
      "mesh": 3,
      "name": "Object_5"
    }
  ],
  "samplers": [
    {
      "magFilter": 9729,
      "minFilter": 9987,
      "wrapS": 10497,
      "wrapT": 10497
    }
  ],
  "scene": 0,
  "scenes": [
    {
      "name": "Sketchfab_Scene",
      "nodes": [
        0
      ]
    }
  ],
  "textures": [
    {
      "sampler": 0,
      "source": 0
    },
    {
      "sampler": 0,
      "source": 1
    }
  ]
}
